PathFileType	4	(X/Y/Z)	C:/Users/beibeiliu/ov580/test_trc/User3\sequence.32_training_dense_right.trc
DataRate	CameraRate	NumFrames	NumMarkers	Units	OrigDataRate	OrigDataStartFrame	OrigNumFrames
120	120	10	19	mm	120	79	209
Frame#	Time	ThumbCMC			ThumbMCP			ThumbIP			ThumbTip			IndexMCP			IndexPIP			IndexTip			MiddleMCP			MiddlePIP			MiddleTip			RingMCP			RingPIP			RingTip			PinkyMCP			PinkyPIP			PinkyTip			BackHand1			BackHand2			BackHand3	
		X0	Y0	Z0	X1	Y1	Z1	X2	Y2	Z2	X3	Y3	Z3	X4	Y4	Z4	X5	Y5	Z5	X6	Y6	Z6	X7	Y7	Z7	X8	Y8	Z8	X9	Y9	Z9	X10	Y10	Z10	X11	Y11	Z11	X12	Y12	Z12	X13	Y13	Z13	X14	Y14	Z14	X15	Y15	Z15	X16	Y16	Z16	X17	Y17	Z17	X18	Y18	Z18	
78	0.65	145.539	-22.8837	29.949	132.863	-33.4942	1.57597	125.567	-36.8561	-33.3328	136.56	-41.6788	-55.421	152.294	6.85494	-39.5172	141.364	-16.8952	-62.3692	150.324	-45.0018	-45.9694	173.245	10.3464	-45.1929	169.555	-10.466	-73.1885	167.098	-47.4233	-63.0129	198.657	13.7695	-39.1692	198.353	10.4373	-69.5498	190.732	-14.2172	-86.4197	221.693	2.18641	-21.7276	232.307	9.64647	-37.5022	237.454	17.1116	-61.0953	201.03	7.05295	13.6363	203.866	0.391579	42.7228	172.155	7.17619	27.9798	
79	0.658333	145.694	-22.9683	27.1699	132.593	-32.2338	-1.28199	129.818	-38.4174	-27.4983	138.462	-41.2091	-53.542	148.868	6.53052	-43.6176	146.517	-19.3186	-63.3234	147.834	-43.923	-42.3703	171.68	11.2726	-46.0863	167.963	-9.14657	-72.6766	167.332	-49.337	-56.9991	195.879	13.2472	-35.6468	195.663	10.82	-69.3361	190.154	-18.4494	-84.4022	222.329	2.74843	-19.9739	227.504	12.504	-38.7863	240.244	17.0107	-63.213	200.57	7.09505	14.9821	202.604	1.61002	40.4095	169.85	6.05601	29.6827	
80	0.666667	145.963	-22.2847	28.2486	133.431	-31.5636	-4.504	130.194	-37.4376	-31.8279	138.139	-43.0039	-56.8694	153.23	8.1537	-44.4071	145.205	-18.6271	-62.2474	150.81	-42.3138	-39.2826	174.138	11.1388	-48.1669	170.782	-10.4134	-73.0244	167.129	-45.9372	-55.8786	197.017	14.5963	-35.826	195.388	11.539	-66.8816	189.213	-17.0014	-83.61	218.767	3.28308	-19.7378	231.45	13.1196	-40.391	239.647	16.1994	-65.7478	199.43	7.53583	14.8021	203.744	0.0566985	40.6077	169.942	6.12724	29.6462	
81	0.675	146.312	-22.5869	27.1994	134.579	-32.0801	-3.35711	130.664	-36.7759	-32.463	146.655	-40.1239	-52.9564	149.48	8.78781	-43.0434	144.307	-18.0162	-60.3321	150.703	-40.3778	-34.4959	175.248	12.5473	-50.867	170.15	-13.4423	-71.1853	167.238	-44.8137	-50.7647	198.23	16.5813	-38.0915	193.883	11.9569	-69.4944	192.16	-17.6848	-83.7957	220.21	4.95745	-20.854	232.07	14.0944	-39.58	238.611	19.8687	-62.236	201.036	6.2104	16.0672	208.015	-0.341456	42.0606	174.313	7.1347	28.7742	
82	0.683333	143.878	-21.5969	26.6919	134.427	-30.2369	-3.48143	134.937	-33.5975	-33.9034	150.82	-37.9466	-53.7037	153.126	9.45017	-43.7614	145.937	-15.3131	-60.1421	152.888	-35.9283	-36.9013	173.347	13.4819	-46.9884	165.211	-7.16562	-70.0697	168.707	-43.959	-45.5516	196.969	18.1115	-38.5803	193.397	12.4453	-68.9817	190.6	-12.3369	-83.0363	218.512	4.22299	-18.3988	231.333	15.5207	-38.5823	236.539	22.0435	-59.9791	202.853	9.07257	11.9438	205.734	2.28962	40.002	172.296	8.19335	27.1348	
83	0.691667	147.945	-20.7441	28.6393	132.962	-28.6995	-4.40054	133.533	-32.3163	-32.4569	152.619	-35.5926	-53.4463	154.315	12.607	-40.2911	144.667	-15.7108	-58.6316	149.648	-34.1481	-30.5034	175.681	15.4353	-45.8614	167.826	-7.35612	-68.7018	168.011	-39.6906	-45.0751	195.491	17.7395	-34.5668	196.696	16.4258	-64.8133	187.224	-9.911	-85.2604	219.432	8.14368	-20.8937	228.258	19.1029	-40.48	235.123	25.0867	-59.5076	205.042	9.54956	14.573	209.409	-1.20196	43.7576	173.627	10.3902	29.9149	
84	0.7	147.717	-20.3443	28.0252	136.138	-26.3268	-3.77773	135.073	-30.5332	-35.9696	155.093	-34.2008	-50.5791	149.585	13.7894	-41.2524	148.308	-14.1338	-58.1359	152.676	-31.7745	-30.3118	173.471	15.3952	-44.2301	167.794	-10.6458	-68.2802	172.347	-39.4276	-41.3624	194.351	21.6269	-37.5542	199.327	18.0538	-66.6821	187.849	-4.40188	-85.8107	219.275	5.83222	-16.8307	231.497	19.2094	-35.7027	233.733	27.555	-57.9361	199.576	11.9186	13.348	207.434	1.52839	41.2537	174.431	9.81272	28.379	
85	0.708333	148.328	-19.5893	25.8427	135.274	-27.2354	-4.32739	140.203	-29.3651	-34.8406	156.731	-33.7427	-53.7544	153.862	13.9578	-39.0718	149.594	-12.3361	-59.3032	154.88	-30.9992	-29.9047	172.587	16.0914	-48.1291	171.963	-7.16216	-67.9565	173.477	-38.371	-37.8007	199.88	21.6003	-38.273	196.257	20.7361	-64.9659	194.616	-3.33308	-88.3728	220.962	11.2355	-18.925	231.197	22.1555	-34.5031	235.105	31.5094	-59.7415	200.654	10.927	17.0201	207.205	-0.903651	44.6305	175.028	8.4924	32.9544	
86	0.716667	147.529	-20.4	25.0621	135.068	-29.5565	-4.61157	139.143	-29.8863	-38.6852	158.981	-33.9019	-55.205	155.775	14.234	-42.4469	153.361	-10.0374	-59.787	160.313	-30.0572	-28.9677	177.896	16.696	-46.3029	175.15	-10.4476	-67.0964	175.231	-36.6116	-35.0254	200.692	22.7952	-39.1989	197.04	19.8357	-67.4407	192.551	-2.04964	-89.3191	221.429	11.4795	-17.6135	230.395	25.7547	-34.647	237.912	34.5166	-53.777	202.249	11.5753	15.3429	207.988	3.05635	45.1326	173.472	11.1849	30.2757	
87	0.725	149.99	-22.9658	26.7823	139.603	-28.1448	-8.56824	142.739	-31.7272	-40.2958	167.008	-32.7166	-56.179	160.449	13.1768	-42.743	157.08	-11.789	-60.677	157.224	-31.5882	-32.4289	179.12	14.3892	-48.6343	175.41	-11.7153	-65.9409	180.046	-37.3955	-36.9465	201.141	21.4517	-37.9913	203.381	18.1036	-66.9435	199.367	-0.367382	-89.0873	226.068	10.9867	-16.2657	233.769	23.6435	-33.2736	245.561	33.7794	-53.9023	205.221	11.9611	18.5475	207.236	1.11741	43.0781	174.507	7.31941	32.2444	
